####
#
# OBJ File Generated by Meshlab
#
####
# Object bottom_side_bar.obj
#
# Vertices: 10
# Faces: 12
#
####
vn -1.1107207345395915 1.1107207345395915 0.0000000000000000
v -0.0000000000000000 -0.0000000000000000 0.0444499999284744
vn -1.1107207345395911 2.6815170613344876 2.3561944901923448
v 0.0888999998569489 0.0888999998569489 0.0444499999284744
vn -1.1107207345395911 1.1107207345395911 0.0000000000000000
v -0.0000000000000000 -0.0000000000000000 0.0000000000000000
vn -1.1107207345395915 2.6815170613344836 -2.3561944901923466
v 0.0888999998569489 0.0888999998569489 0.0000000000000000
vn 1.1107201760123273 -0.4600750337283207 0.7853976605463655
v 1.7100000381469727 0.0000000000000002 0.0444499999284744
vn 0.0000000000000002 -1.5707963267948912 0.7853981633974471
v 0.0000000000000000 0.0000000000000000 0.0444499999284744
vn 1.1107201760123271 -0.4600750337283157 -0.7853976605463671
v 1.7100000381469727 0.0000000000000002 0.0000000000000000
vn 0.0000000000000002 -1.5707963267948966 -0.7853981633974481
v 0.0000000000000000 0.0000000000000000 0.0000000000000000
vn 1.1107201760123269 2.6815176198614679 2.3561949930434269
v 1.6210999488830566 0.0888999998569489 0.0444499999284744
vn 1.1107201760123271 2.6815176198614723 -2.3561949930434278
v 1.6210999488830566 0.0888999998569489 0.0000000000000000
# 10 vertices, 0 vertices normals

f 1//1 2//2 3//3
f 3//3 2//2 4//4
f 5//5 6//6 7//7
f 7//7 6//6 8//8
f 9//9 5//5 10//10
f 10//10 5//5 7//7
f 2//2 9//9 4//4
f 4//4 9//9 10//10
f 5//5 9//9 6//6
f 6//6 9//9 2//2
f 10//10 7//7 4//4
f 4//4 7//7 8//8
# 12 faces, 0 coords texture

# End of File
