####
#
# OBJ File Generated by Meshlab
#
####
# Object bottom_front_bar.obj
#
# Vertices: 12
# Faces: 12
#
####
vn -1.1107207345395915 1.1107207345395915 0.0000000000000000
v -0.0000000000000000 -0.0000000000000000 0.0444499999284744
vn -1.1107207345395911 2.6815170613344876 2.3561944901923448
v 0.0888999998569489 0.0888999998569489 0.0444499999284744
vn -1.1107207345395911 1.1107207345395911 0.0000000000000000
v -0.0000000000000000 -0.0000000000000000 0.0000000000000000
vn -1.1107207345395915 2.6815170613344881 -2.3561944901923448
v 0.0888999998569489 0.0888999998569489 0.0000000000000000
vn 1.1107209207154072 -0.4600757784311522 0.7853983310145871
v 1.6200000047683716 0.0000000000000002 0.0444499999284744
vn 0.0000000000000002 -1.5707963267948952 0.7853981633974477
v 0.0000000000000000 0.0000000000000000 0.0444499999284744
vn 0.0000000000000002 -1.5707963267948952 -0.7853983310145861
v 1.6200000047683716 0.0000000000000002 0.0000000000000000
vn 0.0000000000000002 -1.5707963267948966 -0.7853981633974481
v 0.0000000000000000 0.0000000000000000 0.0000000000000000
vn 1.1107209207154072 2.6815168751586409 2.3561943225752056
v 1.5311000347137451 0.0888999998569489 0.0444499999284744
vn 1.1107209207154070 1.1107205483637443 0.0000000000000000
v 1.5311000347137451 0.0888999998569489 0.0000000000000000
vn 1.1107209207154072 1.1107205483637446 0.0000000000000000
v 1.6200000047683716 0.0000000000000002 0.0000000000000000
vn 0.0000000000000000 1.5707963267948966 -2.3561943225752064
v 1.5311000347137451 0.0888999998569489 0.0000000000000000
# 12 vertices, 0 vertices normals

f 1//1 2//2 3//3
f 3//3 2//2 4//4
f 5//5 6//6 7//7
f 7//7 6//6 8//8
f 9//9 5//5 10//10
f 10//10 5//5 11//11
f 2//2 9//9 4//4
f 4//4 9//9 12//12
f 5//5 9//9 6//6
f 6//6 9//9 2//2
f 12//12 7//7 4//4
f 4//4 7//7 8//8
# 12 faces, 0 coords texture

# End of File
