####
#
# OBJ File Generated by Meshlab
#
####
# Object top_side_bar.obj
#
# Vertices: 8
# Faces: 12
#
####
vn -1.1107207345395913 -0.4600755922552997 0.7853981633974463
v 0.0000000000000000 0.0000000000000000 0.0444499999284744
vn -1.1107207345395915 2.6815170613344881 2.3561944901923448
v 0.0444499999284744 0.0444499999284744 0.0444499999284744
vn -1.1107207345395913 -0.4600755922553050 -0.7853981633974481
v 0.0000000000000000 0.0000000000000000 0.0000000000000000
vn -1.1107207345395915 2.6815170613344841 -2.3561944901923422
v 0.0444499999284744 0.0444499999284744 0.0000000000000000
vn 1.1107201760123258 -0.4600750337283200 0.7853976605463643
v 1.7100000381469727 0.0000000000000002 0.0444499999284744
vn 1.1107201760123258 -0.4600750337283146 -0.7853976605463608
v 1.7100000381469727 0.0000000000000002 0.0000000000000000
vn 1.1107201760123255 2.6815176198614687 2.3561949930434274
v 1.6655499935150146 0.0444499999284744 0.0444499999284744
vn 1.1107201760123255 2.6815176198614732 -2.3561949930434292
v 1.6655499935150146 0.0444499999284744 0.0000000000000000
# 8 vertices, 0 vertices normals

f 1//1 2//2 3//3
f 3//3 2//2 4//4
f 5//5 1//1 6//6
f 6//6 1//1 3//3
f 7//7 5//5 8//8
f 8//8 5//5 6//6
f 2//2 7//7 4//4
f 4//4 7//7 8//8
f 5//5 7//7 1//1
f 1//1 7//7 2//2
f 8//8 6//6 4//4
f 4//4 6//6 3//3
# 12 faces, 0 coords texture

# End of File
